<?xml version="1.0" encoding="UTF-8"?>
<svg version="1.1" xmlns="http://www.w3.org/2000/svg" width="512" height="512">
<path d="M0 0 C1.89477539 1.26318359 1.89477539 1.26318359 3.72265625 2.9609375 C4.41335205 3.59862061 5.10404785 4.23630371 5.81567383 4.89331055 C9.6732618 8.61378966 13.47972657 12.37853206 17.25 16.1875 C18.10754883 17.04883545 18.96509766 17.9101709 19.84863281 18.79760742 C23.48494939 22.45013983 27.11524371 26.10863635 30.74609375 29.76660156 C33.41197597 32.45065156 36.0809181 35.13163241 38.75 37.8125 C39.55856445 38.62936279 40.36712891 39.44622559 41.20019531 40.2878418 C42.36180176 41.45440308 42.36180176 41.45440308 43.546875 42.64453125 C44.21557617 43.31846924 44.88427734 43.99240723 45.57324219 44.68676758 C47.46864102 46.49349835 49.38365694 48.18492337 51.37541199 49.87937927 C58.0438758 55.68255625 64.19673917 62.04026759 70.4465332 68.28540039 C71.90076538 69.73499778 73.35519263 71.1843995 74.80979919 72.63362122 C78.74167839 76.55244712 82.67027695 80.47454513 86.59786248 84.39767385 C89.05317428 86.85004641 91.50906839 89.30183437 93.96513939 91.75344658 C101.6544856 99.42914306 109.34184518 107.10682088 117.02630454 114.78740984 C125.88952532 123.64614119 134.75926275 132.49827909 143.63468295 141.34478766 C150.50382275 148.19232721 157.36720279 155.04560487 164.22621983 161.90328401 C168.31999424 165.99601019 172.41616494 170.08626766 176.51833534 174.17057991 C180.37202993 178.0078203 184.21853122 181.85212681 188.05961037 185.70199394 C189.46994272 187.1130978 190.88284356 188.52163995 192.29848862 189.92741394 C194.23081451 191.84705305 196.15365726 193.77572251 198.07441711 195.70692444 C198.63608198 196.2605329 199.19774685 196.81414136 199.77643186 197.38452584 C203.92416383 201.58516886 207 205.40713321 207 211.5625 C206 215 206 215 201 220 C186.81 220 172.62 220 158 220 C158 272.14 158 324.28 158 378 C160.31 377.34 162.62 376.68 165 376 C177.67646979 374.7494656 187.36093025 376.74494855 197.875 384.25 C202.25900795 387.911282 205.26820352 392.00921797 208 397 C208.3403125 397.59039062 208.680625 398.18078125 209.03125 398.7890625 C212.87991149 406.87837879 212.150456 418.52943548 209.5625 426.875 C204.42707966 438.71108865 193.01135096 446.38557965 183.21972656 454.21972656 C181.08195896 455.93426697 178.95668771 457.66291153 176.8359375 459.3984375 C169.43355381 465.4541214 161.97540112 471.43243763 154.4296875 477.30859375 C152.09855263 479.12709171 149.79571848 480.97509517 147.5078125 482.84765625 C126.84221491 499.66219958 100.63224921 512.07734959 73.55300903 512.14044189 C72.83623391 512.14341302 72.11945879 512.14638414 71.38096321 512.1494453 C68.99631364 512.15806691 66.61171466 512.15963499 64.22705078 512.16113281 C62.50977981 512.16576583 60.79250986 512.17079114 59.07524109 512.17617798 C54.41970433 512.18926229 49.76418197 512.19573984 45.1086297 512.20018864 C42.19295085 512.20312738 39.27727586 512.2072338 36.36159897 512.21169281 C27.21900232 512.22536082 18.07641459 512.23502939 8.93380845 512.2388947 C-1.58146228 512.24336592 -12.09660241 512.26087314 -22.61183345 512.2898953 C-30.76334323 512.31160356 -38.91481653 512.32160393 -47.06635487 512.32293582 C-51.92324362 512.32397785 -56.78000949 512.32975541 -61.63686752 512.34775543 C-66.21536535 512.36439373 -70.79365005 512.36631632 -75.37216759 512.35761642 C-77.03887318 512.35685424 -78.70559098 512.36107845 -80.37226677 512.37107468 C-112.84570205 512.55418079 -140.06336542 501.29095495 -167.40234375 484.58496094 C-171.58667926 482.03188705 -175.79414611 479.51741362 -180 477 C-180.03528809 477.7518457 -180.07057617 478.50369141 -180.10693359 479.27832031 C-180.68166939 489.96095223 -184.11875564 497.67827603 -192 505 C-199.1837942 510.47469036 -205.94104345 512.29909413 -214.86352539 512.30639648 C-215.73419144 512.31472 -216.60485748 512.32304352 -217.50190735 512.33161926 C-220.36720298 512.35562871 -223.23227084 512.36447824 -226.09765625 512.37109375 C-228.0949256 512.38006367 -230.09219428 512.38918559 -232.08946228 512.39845276 C-236.26970044 512.41491832 -240.4498587 512.42263902 -244.63012695 512.42553711 C-249.98593456 512.43093272 -255.34099219 512.46867191 -260.69658756 512.51428127 C-264.8187078 512.54401521 -268.94064613 512.5512598 -273.0628643 512.55226326 C-275.0376474 512.55646922 -277.01243086 512.56891855 -278.98710823 512.58978081 C-281.74725954 512.61663238 -284.505654 512.61188978 -287.26586914 512.59936523 C-288.48711487 512.62161667 -288.48711487 512.62161667 -289.73303223 512.64431763 C-290.48850845 512.63455399 -291.24398468 512.62479034 -292.02235413 512.61473083 C-292.99928773 512.61774783 -292.99928773 512.61774783 -293.99595737 512.62082577 C-297.43752616 511.5546735 -298.85306221 509.86024557 -301 507 C-301.72325246 503.84742503 -301.67520126 500.77226091 -301.63491821 497.54882812 C-301.64271817 496.59253258 -301.65051812 495.63623703 -301.65855443 494.65096283 C-301.67851088 491.44400093 -301.66269504 488.23822087 -301.64697266 485.03125 C-301.65374712 482.73322862 -301.66264928 480.43521267 -301.67352295 478.13720703 C-301.69634286 471.89342981 -301.6874685 465.65006507 -301.67162752 459.40628052 C-301.65898264 452.87696203 -301.67070471 446.34767923 -301.67855835 439.81835938 C-301.68824218 428.15010013 -301.67268845 416.4820294 -301.64726166 404.81379986 C-301.62492289 394.23514848 -301.62880305 383.65677143 -301.65185547 373.078125 C-301.67861557 360.79229515 -301.6885719 348.50666066 -301.67379415 336.22080231 C-301.66599257 329.71769116 -301.66497771 323.21476898 -301.68147659 316.71166992 C-301.69590295 310.59825803 -301.6859324 304.48536502 -301.65700531 298.37200928 C-301.65038479 296.12620913 -301.65230853 293.88036544 -301.66331863 291.63458252 C-301.67694689 288.57285292 -301.65989011 285.51279447 -301.63491821 282.45117188 C-301.64607182 281.55866478 -301.65722543 280.66615768 -301.66871703 279.74660492 C-301.59824298 275.30378917 -301.4454326 273.55860688 -298.58531761 269.97180176 C-294.35276574 266.74366717 -291.21769202 266.84080947 -286.05297852 266.82299805 C-285.23154861 266.81642685 -284.41011871 266.80985565 -283.563797 266.80308533 C-280.83549917 266.78332104 -278.10725668 266.77167799 -275.37890625 266.76171875 C-274.44566969 266.75764322 -273.51243313 266.7535677 -272.55091667 266.74936867 C-267.60401505 266.72848687 -262.65714127 266.71419869 -257.71020508 266.70483398 C-252.61955203 266.69381197 -247.52934124 266.65946712 -242.43884373 266.61966228 C-238.51036313 266.59339779 -234.58198587 266.58513307 -230.65342522 266.58155251 C-228.77850319 266.57670579 -226.90358518 266.56514697 -225.02874947 266.54651451 C-211.76284237 266.42295389 -200.63468609 267.02512496 -190.0078125 275.95703125 C-181.73544562 284.37424502 -180 293.5853864 -180 305 C-175.38 305 -170.76 305 -166 305 C-166 276.95 -166 248.9 -166 220 C-179.92663659 220.19762081 -179.92663659 220.19762081 -193.85229492 220.45043945 C-195.60333736 220.46504792 -197.35439682 220.47778775 -199.10546875 220.48828125 C-200.4597699 220.526651 -200.4597699 220.526651 -201.84143066 220.5657959 C-206.42809323 220.5689727 -208.34410219 220.51630271 -212.0559082 217.59448242 C-214.90791908 213.78833906 -215.45928183 211.77653106 -215 207 C-211.7601543 201.21618006 -207.12151584 196.83258553 -202.45532227 192.18066406 C-201.59470184 191.31493271 -200.73408142 190.44920135 -199.84738159 189.55723572 C-197.49785701 187.19623059 -195.14392815 184.83980626 -192.78739285 182.48581028 C-190.81730937 180.51680001 -188.85021823 178.54481345 -186.88306469 176.57287669 C-182.24265802 171.92139798 -177.59697179 167.27523926 -172.94799805 162.63232422 C-168.15635656 157.8467314 -163.37398661 153.05201363 -158.59601742 148.25277352 C-154.4866537 144.12579146 -150.37150362 140.00464244 -146.25169414 135.88808799 C-143.79402643 133.43223172 -141.33862766 130.97421126 -138.88882637 128.51050568 C-136.15900413 125.76576864 -133.41716361 123.03323688 -130.67407227 120.30175781 C-129.46213951 119.07835945 -129.46213951 119.07835945 -128.22572327 117.83024597 C-127.47577087 117.08730789 -126.72581848 116.34436981 -125.95314026 115.57891846 C-124.98337171 114.6088983 -124.98337171 114.6088983 -123.99401188 113.61928177 C-121.74841461 111.79569448 -119.75380387 110.86278693 -117 110 C-114.7109375 110.41015625 -114.7109375 110.41015625 -112.375 111.0625 C-109.74831768 111.5725174 -109.74831768 111.5725174 -107 111 C-102.78694906 107.76573868 -99.41143923 104.05351619 -96 100 C-96.33 99.01 -96.66 98.02 -97 97 C-97.62459676 92.235219 -97.71403622 89.03859814 -94.9375 85 C-91.43391998 82.61458381 -89.21779855 82.14799293 -85 82 C-84.06027344 82.26425781 -83.12054688 82.52851562 -82.15234375 82.80078125 C-78.82806391 83.3292002 -78.82806391 83.3292002 -75.9375 80.97265625 C-74.93316432 80.02868684 -73.95429171 79.05703293 -73 78.0625 C-72.50306641 77.55686523 -72.00613281 77.05123047 -71.49414062 76.53027344 C-68.7736124 73.54630656 -68.7736124 73.54630656 -67.84375 69.73046875 C-68.43079358 67.74226702 -68.43079358 67.74226702 -69.46875 66.046875 C-70.34413933 62.67405141 -68.60665702 59.92327688 -67 57 C-65.26230651 54.91331573 -63.58874426 53.06919305 -61.65820312 51.18823242 C-61.12613754 50.65397644 -60.59407196 50.11972046 -60.04588318 49.5692749 C-58.30046152 47.82155843 -56.54125047 46.08849272 -54.78125 44.35546875 C-53.55880884 43.13795596 -52.33718199 41.91962507 -51.11633301 40.70051575 C-48.56351898 38.15532059 -46.00440549 35.61670776 -43.43994141 33.08325195 C-40.15275597 29.8357449 -36.87652611 26.57746547 -33.60428619 23.31490612 C-30.47929378 20.19988259 -27.34937032 17.08983465 -24.21875 13.98046875 C-23.62228165 13.38739614 -23.02581329 12.79432354 -22.41127014 12.18327904 C-20.72412892 10.50771381 -19.03357386 8.83567786 -17.34179688 7.16479492 C-16.84300522 6.66869217 -16.34421356 6.17258942 -15.83030701 5.66145325 C-10.68554602 0.59627496 -7.17018233 -1.35858297 0 0 Z " fill="#010000" transform="translate(301,0)"/>
<path d="M0 0 C3.88729453 1.5933917 6.33738826 4.09364674 9.28224182 7.04846191 C9.80215397 7.56737078 10.32206612 8.08627965 10.85773319 8.62091303 C12.5981754 10.36040284 14.33136958 12.10693854 16.06469727 13.85351562 C17.31119815 15.10221777 18.55814741 16.35047248 19.80551147 17.59831238 C22.49030685 20.28604143 25.17191444 22.97689743 27.85110664 25.67021179 C32.08563148 29.9269881 36.32721964 34.17667846 40.56980896 38.42541504 C47.27768612 45.14467528 53.98087382 51.8685915 60.68204015 58.59454393 C72.68697481 70.64380365 84.69749318 82.6874914 96.71323055 94.72597837 C100.93159518 98.95276156 105.14713441 103.1823371 109.36044133 107.41416168 C111.97906807 110.0434166 114.5997121 112.67065391 117.22086716 115.29738808 C118.43798268 116.51797982 119.6542253 117.7394427 120.86953926 118.96182823 C122.52565147 120.62736576 124.18480254 122.28981604 125.84474182 123.95153809 C126.77332284 124.88363853 127.70190386 125.81573898 128.6586237 126.7760849 C131.98693511 129.93742295 134.17786606 131.23285792 138.6875 131.625 C139.49574219 131.69976562 140.30398438 131.77453125 141.13671875 131.8515625 C142.05904297 131.92503906 142.05904297 131.92503906 143 132 C143.46829128 154.29630067 143.82040436 176.59178508 144.03624344 198.8920145 C144.13915199 209.24796493 144.27929229 219.60085136 144.50878906 229.95483398 C144.70885221 238.98523458 144.83732475 248.01341615 144.8817699 257.04597133 C144.9077367 261.82516262 144.96820003 266.59800959 145.11460114 271.3751545 C145.97398322 300.48886724 145.97398322 300.48886724 140.94151306 308.12244797 C135.79316804 313.50027926 129.84356787 317.14434302 123 320 C120.61899418 317.61899418 119.75411459 315.38276349 118.375 312.3125 C114.35181546 304.17845862 109.17620032 299.5133873 100.92720032 295.88671875 C94.79940757 294.03046426 88.29229779 294.31238016 81.9375 294.25 C80.48499126 294.22178965 79.03251492 294.19185529 77.58007812 294.16015625 C74.05353724 294.08689589 70.52713013 294.03695665 67 294 C66.99853344 293.25216405 66.99706688 292.5043281 66.99555588 291.73383045 C66.95850826 273.53942301 66.8995208 255.34520789 66.81609726 237.15095234 C66.77628362 228.35234075 66.74390297 219.55381891 66.72900391 210.75512695 C66.7159994 203.08639983 66.68906562 195.41786997 66.64538693 187.74925393 C66.6227449 183.68852935 66.60709095 179.62804833 66.60811615 175.56725502 C66.60886116 171.74466028 66.59097515 167.92260447 66.55883217 164.10014915 C66.55031719 162.69773694 66.54859413 161.29526439 66.55419731 159.89283752 C66.56083348 157.97653295 66.54056276 156.06019173 66.51898193 154.14399719 C66.51529476 153.07195195 66.51160759 151.99990671 66.50780869 150.89537525 C65.87579889 147.29184194 64.50965943 145.61272509 62 143 C59.56425821 141.78212911 57.99182208 141.86619724 55.26870728 141.85282898 C54.27045425 141.84567368 53.27220123 141.83851837 52.24369812 141.83114624 C51.14443497 141.82845734 50.04517181 141.82576843 48.91259766 141.82299805 C47.18078499 141.81314125 47.18078499 141.81314125 45.41398621 141.80308533 C41.58067771 141.78332019 37.74740841 141.77168375 33.9140625 141.76171875 C32.60801434 141.75764322 31.30196617 141.7535677 29.95634079 141.74936867 C23.75948236 141.73031807 17.56263585 141.71608596 11.36575377 141.7077567 C4.2099103 141.69797988 -2.9456242 141.67164868 -10.10135877 141.63125581 C-15.63093022 141.60111211 -21.160413 141.58628956 -26.69006503 141.58297569 C-29.99350068 141.5806234 -33.29653026 141.56967488 -36.59989548 141.54651451 C-40.2847864 141.52228124 -43.96886313 141.52305937 -47.65380859 141.5300293 C-48.74902328 141.51721924 -49.84423798 141.50440918 -50.97264099 141.49121094 C-51.97653366 141.49815475 -52.98042633 141.50509857 -54.01473999 141.51225281 C-54.8860021 141.50986445 -55.75726421 141.5074761 -56.65492821 141.50501537 C-59.80761432 142.17046671 -60.9955549 143.53066007 -63 146 C-64.18446884 149.55340652 -64.17568753 152.80082447 -64.20532227 156.50073242 C-64.21522186 157.26194901 -64.22512146 158.02316559 -64.23532104 158.80744934 C-64.26690729 161.32342418 -64.29168209 163.83941789 -64.31640625 166.35546875 C-64.33697826 168.09996532 -64.3579748 169.84445693 -64.37937927 171.58894348 C-64.43457442 176.18053167 -64.48399499 180.77216465 -64.53222656 185.36383057 C-64.58246024 190.04923489 -64.63813657 194.73457417 -64.69335938 199.41992188 C-64.80090968 208.61322568 -64.90236162 217.80658596 -65 227 C-65.76135254 226.69513672 -66.52270508 226.39027344 -67.30712891 226.07617188 C-70.32453481 224.87030377 -73.34717521 223.67948519 -76.375 222.5 C-77.45523438 222.0771875 -78.53546875 221.654375 -79.6484375 221.21875 C-87.32792946 218.42620747 -93.66775615 217.67307512 -101.83984375 217.5859375 C-102.83536255 217.56829346 -103.83088135 217.55064941 -104.85656738 217.5324707 C-108.55005191 217.46974293 -112.24379892 217.42332259 -115.9375 217.375 C-124.208125 217.25125 -132.47875 217.1275 -141 217 C-141 188.95 -141 160.9 -141 132 C-138.03 131.67 -135.06 131.34 -132 131 C-129.29986493 129.45999886 -129.29986493 129.45999886 -127.20840454 127.2013092 C-126.37052021 126.38259401 -125.53263588 125.56387882 -124.66936111 124.72035408 C-123.78847195 123.82263723 -122.90758278 122.92492039 -122 122 C-120.5617364 120.59266432 -119.12345399 119.18534764 -117.68452144 117.77869594 C-114.99162973 115.13204943 -112.33091998 112.45333735 -109.66552734 109.77905273 C-108.4623123 108.57555495 -107.25887568 107.37227863 -106.05523682 106.16920471 C-102.81815317 102.93240565 -99.58414203 99.69255296 -96.35071135 96.45210528 C-92.95995038 93.05505398 -89.56631972 89.66087185 -86.17300415 86.26637268 C-79.76103512 79.85130698 -73.35161745 73.43369854 -66.943133 67.01515204 C-59.64152459 59.70233058 -52.33704523 52.39237965 -45.03233409 45.08265769 C-30.01837973 30.05827667 -15.00799937 15.03032937 0 0 Z " fill="#FCE18B" transform="translate(296,88)"/>
<path d="M0 0 C10.25797791 -0.04648583 20.51593046 -0.08195143 30.77399254 -0.10362434 C35.53800573 -0.11402996 40.30194646 -0.12812989 45.06591797 -0.15087891 C49.66950816 -0.17272272 54.27302897 -0.18459282 58.87666702 -0.18975449 C60.62679765 -0.19342963 62.37692478 -0.20060588 64.1270256 -0.21146011 C81.58734925 -0.31537362 95.47396247 1.17118016 108.54370117 13.91015625 C110.90409412 16.26831583 113.223989 18.66371791 115.54296875 21.0625 C116.80306961 22.34146591 118.0647645 23.61886305 119.32795715 24.89477539 C122.6270518 28.23347032 125.90895041 31.58850701 129.18597412 34.94885254 C134.43573484 40.32876468 139.70623472 45.68815983 144.98681068 51.03781128 C146.8137409 52.89507922 148.62989469 54.76239816 150.44511414 56.63110352 C161.13439996 67.55457332 171.16540161 75.83684797 187.1489563 76.13130188 C188.69710466 76.13965527 190.24528648 76.14288204 191.79345703 76.1418457 C192.64476196 76.14532013 193.49606689 76.14879456 194.37316895 76.15237427 C196.21028118 76.15969109 198.04740203 76.16505801 199.8845253 76.16866493 C202.7933585 76.17586929 205.7020268 76.19156236 208.61080933 76.21000671 C216.87707359 76.26231147 225.14324147 76.3104945 233.40966797 76.32592773 C238.47536511 76.33600296 243.54063747 76.36530481 248.60616684 76.40724754 C250.53343369 76.41955759 252.46076047 76.42467879 254.38806534 76.42244911 C257.08095074 76.42009865 259.77261202 76.44223873 262.46533203 76.4699707 C263.65616898 76.46006859 263.65616898 76.46006859 264.87106323 76.44996643 C269.88106493 76.53469611 272.49922013 77.39353359 276 81 C278.85632372 85.43222647 279.56138108 88.76044321 279 94 C277.42275698 97.98066095 276.58999089 99.60667274 273 102 C270.64973545 102.26006222 270.64973545 102.26006222 267.82264709 102.27415466 C266.75043915 102.28412979 265.6782312 102.29410492 264.5735321 102.30438232 C263.3969252 102.305047 262.2203183 102.30571167 261.00805664 102.30639648 C259.76868347 102.31472 258.5293103 102.32304352 257.25238037 102.33161926 C253.84889923 102.35161694 250.44566309 102.36236692 247.04214406 102.36744571 C244.91180246 102.37109093 242.78148431 102.37733223 240.65115166 102.3844471 C233.20679571 102.40895985 225.76250947 102.42199484 218.31811523 102.42553711 C211.40110768 102.42916108 204.48454695 102.45896921 197.56767565 102.50094169 C191.61586924 102.53577914 185.6642097 102.55108796 179.71230215 102.55178314 C176.16379442 102.55257222 172.61574052 102.56113599 169.06733894 102.58978081 C165.096887 102.62111211 161.12706071 102.61183777 157.15649414 102.59936523 C155.99810532 102.61419952 154.83971649 102.62903381 153.64622498 102.64431763 C143.286046 102.55215807 134.70294364 99.18562503 126.11328125 93.44140625 C125.15486328 92.80783203 124.19644531 92.17425781 123.20898438 91.52148438 C122.25314453 90.87501953 121.29730469 90.22855469 120.3125 89.5625 C119.34505859 88.91990234 118.37761719 88.27730469 117.38085938 87.61523438 C113.70617231 85.17123251 110.04331696 82.71073889 106.39599609 80.22607422 C105.59887207 79.68611816 104.80174805 79.14616211 103.98046875 78.58984375 C103.28203857 78.11281006 102.5836084 77.63577637 101.86401367 77.14428711 C97.95279458 74.74325451 94.49458697 74.53504273 90 75 C86.91666667 76.91666667 86.91666667 76.91666667 85 80 C84.3862631 83.8188074 84.37235025 85.96039985 86.38671875 89.296875 C90.21390421 93.25563784 94.70189917 95.87864743 99.375 98.75 C101.36616835 99.99173392 103.35705393 101.23392139 105.34765625 102.4765625 C106.31590332 103.07758789 107.28415039 103.67861328 108.28173828 104.29785156 C111.24631047 106.15423717 114.17118868 108.0636187 117.08984375 109.9909668 C129.6553321 118.26289046 140.04426494 121.30178158 155.05029297 121.29052734 C156.98841858 121.30060318 156.98841858 121.30060318 158.96569824 121.31088257 C162.49059613 121.32845634 166.01539675 121.33323422 169.54033422 121.33451414 C171.74757349 121.33594098 173.95478844 121.34022058 176.16202164 121.34550858 C183.87642218 121.36397894 191.59075386 121.37218278 199.30517578 121.37060547 C206.47389937 121.36940425 213.64232182 121.39051034 220.81096923 121.4220928 C226.98534767 121.44831674 233.15962809 121.45897024 239.33406174 121.45769465 C243.01313845 121.4571869 246.69194709 121.4627662 250.37096786 121.48405075 C254.47782468 121.50716501 258.58401365 121.49787503 262.69091797 121.48583984 C263.89539581 121.49707886 265.09987366 121.50831787 266.34085083 121.51989746 C277.9223776 121.43389347 285.63031367 117.91035634 294.4375 110.625 C296.00730044 109.3649241 297.57897619 108.10718156 299.15234375 106.8515625 C299.95140137 106.2112207 300.75045898 105.57087891 301.57373047 104.91113281 C305.47454008 101.83852891 309.48496307 98.9207782 313.5 96 C320.76019623 90.70978691 327.87511325 85.26292466 334.86328125 79.6171875 C341.19978714 74.58595436 347.40211374 70.13260569 355.765625 70.55078125 C362.54250619 71.9132661 367.05969645 76.62685879 371 82 C372.13557238 84.27114476 372.23084318 85.72293619 372.3125 88.25 C372.34988281 88.99765625 372.38726562 89.7453125 372.42578125 90.515625 C371.32398939 96.94442888 366.14299779 100.94336861 361.375 104.875 C360.74964355 105.40037354 360.12428711 105.92574707 359.47998047 106.46704102 C355.28309873 109.97916836 351.03606596 113.4274446 346.7421875 116.8203125 C343.91465908 119.06783509 341.1133846 121.34517968 338.31469727 123.62841797 C330.79615689 129.76095805 323.25066128 135.85557338 315.57128906 141.78613281 C314.11378874 142.91209484 312.66210818 144.04557932 311.2109375 145.1796875 C301.21496236 152.75775715 290.61132683 158.37584569 278.75 162.375 C278.04222412 162.6136377 277.33444824 162.85227539 276.60522461 163.09814453 C265.27894024 166.70451066 254.22408893 167.29541462 242.41552734 167.2746582 C240.76662975 167.2790138 239.11773418 167.28419975 237.46884155 167.29014587 C233.01805713 167.30346 228.56735803 167.30412276 224.1165576 167.30158257 C220.38463819 167.3005071 216.65273564 167.30541119 212.92081988 167.310188 C204.10458956 167.32125825 195.28840186 167.32173543 186.47216797 167.31567383 C177.41827048 167.30964381 168.36452878 167.32192605 159.31065786 167.3432439 C151.5030063 167.36094231 143.69540395 167.36684811 135.8877331 167.36360615 C131.23994559 167.3618053 126.59226907 167.36430786 121.94449997 167.37832069 C117.56620192 167.39102837 113.18814376 167.38883466 108.80984879 167.37590981 C107.21732243 167.37357184 105.62477849 167.37617672 104.03227234 167.38453293 C89.54381835 167.45497894 75.46986835 165.70156827 61.6875 161 C60.81270996 160.70295166 59.93791992 160.40590332 59.03662109 160.09985352 C49.05620415 156.53746632 40.05996155 151.43828899 31 146 C30.01547852 145.41138184 29.03095703 144.82276367 28.01660156 144.21630859 C21.31268413 140.19543523 14.64073586 136.12436016 8 132 C7.34595562 131.72681788 6.69191124 131.45363577 6.01804733 131.17217541 C3.57994212 130.01279386 1.88465673 128.9455238 0 127 C-1.18866019 122.94136102 -1.01154552 118.97641687 -0.90820312 114.77416992 C-0.90937134 113.53473633 -0.91053955 112.29530273 -0.91174316 111.01831055 C-0.90712894 107.62668351 -0.86707342 104.2389698 -0.8111515 100.84803557 C-0.76108006 97.30207252 -0.75643707 93.75605511 -0.74694824 90.20979309 C-0.72210028 83.49813235 -0.65647684 76.78751628 -0.57615232 70.07631522 C-0.48667751 62.4344128 -0.44273364 54.79245999 -0.40258884 47.15016401 C-0.31900725 31.43283801 -0.17832988 15.7165538 0 0 Z " fill="#FCDBC4" transform="translate(120,325)"/>
<path d="M0 0 C72 0 72 0 77 3 C80.23718397 6.99833447 80.4297415 10.69853417 80.38768005 15.66014099 C80.39306559 16.42380401 80.39845113 17.18746703 80.40399987 17.97427136 C80.41828942 20.52915482 80.4111734 23.0835209 80.40405273 25.63842773 C80.40975579 27.47177548 80.41671979 29.30511967 80.42485046 31.13845825 C80.44280414 36.11573016 80.44160933 41.09282599 80.43590808 46.07012057 C80.43281943 50.22528768 80.43890507 54.3804208 80.44494683 58.53558308 C80.4589977 68.33795974 80.45742607 78.14024927 80.44604492 87.94262695 C80.43456276 98.05547877 80.44863978 108.16806542 80.4754414 118.2808823 C80.49759194 126.96382657 80.50423724 135.64668757 80.49836498 144.32965809 C80.49499271 149.51543944 80.49742849 154.7010508 80.51461601 159.8868084 C80.53007275 164.76325879 80.52614368 169.63931609 80.50731087 174.51575089 C80.50362148 176.30478528 80.50674365 178.09384871 80.51719666 179.88285637 C80.53038468 182.32664991 80.51887952 184.76913791 80.50120544 187.21287537 C80.51561295 188.27295489 80.51561295 188.27295489 80.53031152 189.35445017 C80.45601507 194.35275431 79.26550048 197.23690129 76 201 C53.32353153 212.33823423 25.35306249 204 0 204 C0 136.68 0 69.36 0 0 Z " fill="#BFC9FE" transform="translate(20,288)"/>
<path d="M0 0 C2.85164421 1.29606664 4.91050841 2.6611201 7.1203537 4.87425804 C8.01164057 5.75957177 8.01164057 5.75957177 8.92093325 6.66277063 C9.88571887 7.63629478 9.88571887 7.63629478 10.86999512 8.62948608 C11.5607109 9.31849302 12.25142669 10.00749995 12.96307325 10.71738589 C15.28159685 13.03260936 17.59288933 15.35491985 19.90429688 17.67724609 C21.56297074 19.33648398 23.22208488 20.99528184 24.88160706 22.65367126 C29.39218313 27.16367228 33.89655488 31.67982468 38.3998661 36.19707823 C42.63250318 40.4409398 46.86974177 44.68019992 51.10696524 48.91948111 C59.5041008 57.32099452 67.89676101 65.72696386 76.28662109 74.13574219 C84.42654142 82.29399796 92.56854181 90.45016841 100.71337891 98.60351562 C101.21486865 99.10553082 101.7163584 99.60754601 102.2330448 100.12477379 C104.74947112 102.64381069 107.26593898 105.1628061 109.78242779 107.68178058 C127.13334728 125.04992314 144.47982394 142.42249545 161.8217926 159.79957581 C162.55278687 160.53204926 163.28378114 161.26452272 164.03692675 162.01919234 C165.3843321 163.36935044 166.73171398 164.71953198 168.07906675 166.06974256 C171.0511822 169.0480274 174.0240008 172.02559459 177 175 C163.20789187 177.27773568 146.83542912 179.61961327 134.64101821 171.37001312 C125.75844411 164.62705417 118.1583312 156.35696942 110.59204364 148.20929384 C107.03707792 144.42233147 103.37623711 140.74037951 99.72633362 137.04525757 C92.85633667 130.0590953 86.08271992 122.98704207 79.34105498 115.87719858 C71.66023259 107.7858081 63.87811352 99.79501474 56.08526504 91.81168866 C46.58476869 82.07801239 37.09848264 72.3315438 27.69444275 62.50454712 C26.70230481 61.46816435 26.70230481 61.46816435 25.69012368 60.41084456 C22.59349258 57.17454342 19.50075928 53.93463716 16.41371155 50.68919373 C15.33176519 49.55597836 14.24976766 48.42281184 13.16770935 47.28970337 C12.68350806 46.77803293 12.19930677 46.26636249 11.70043272 45.73918688 C8.36909958 42.25725635 6.20411653 40.18367879 1.3125 39.4375 C-7.85456043 39.75116041 -15.41961735 51.46177496 -21.37319946 57.73849106 C-24.40709699 60.93609776 -27.45340953 64.12184925 -30.49859619 67.30870056 C-31.14520848 67.98584449 -31.79182076 68.66298841 -32.45802736 69.36065185 C-41.52806584 78.84945049 -50.6955389 88.24403753 -59.85919571 97.64230251 C-67.30157023 105.28080628 -74.70706425 112.94961215 -82.03613281 120.69702148 C-88.45592393 127.48297343 -94.93906569 134.20072059 -101.50195861 140.84847409 C-104.96243384 144.35824911 -108.3852854 147.89126327 -111.73316193 151.50887871 C-134.43406103 175.9708036 -134.43406103 175.9708036 -151.4842689 176.83071977 C-159.38874567 176.96302281 -167.19888872 176.22314635 -175 175 C-170.9609849 170.13569604 -166.71374224 165.60582911 -162.18432617 161.19775391 C-160.83303472 159.87276195 -159.48181628 158.54769553 -158.13066101 157.2225647 C-157.42360205 156.53097889 -156.71654308 155.83939308 -155.98805809 155.12685013 C-152.21597412 151.43175429 -148.46195324 147.71835925 -144.70507812 144.0078125 C-139.93795493 139.30071717 -135.16554091 134.59945024 -130.37133789 129.91992188 C-126.48256766 126.12322189 -122.61371571 122.30720976 -118.75744057 118.47751999 C-117.28896196 117.02629221 -115.81334351 115.58225147 -114.33046532 114.14574051 C-112.25755244 112.13575643 -110.21105478 110.10199945 -108.16870117 108.06103516 C-107.55522324 107.47789047 -106.9417453 106.89474579 -106.30967712 106.29393005 C-102.5619618 102.48188078 -101.25757869 99.54137321 -100.8065691 94.20879173 C-100.94105562 91.44900455 -100.94105562 91.44900455 -103 87 C-99.04 83.04 -95.08 79.08 -91 75 C-91.33 74.01 -91.66 73.02 -92 72 C-92.62459676 67.235219 -92.71403622 64.03859814 -89.9375 60 C-86.43391998 57.61458381 -84.21779855 57.14799293 -80 57 C-79.05253906 57.27585938 -78.10507813 57.55171875 -77.12890625 57.8359375 C-73.78907406 58.36379222 -73.78907406 58.36379222 -71.1484375 55.65625 C-70.20553472 54.62064611 -69.28139508 53.56770268 -68.375 52.5 C-66.64951166 50.50130934 -64.96984633 48.78535921 -63 47 C-60.87890625 47.109375 -60.87890625 47.109375 -59 48 C-54.22891574 49.14384526 -54.22891574 49.14384526 -49.67578125 47.875 C-46.40295128 45.5816301 -43.51737629 42.99364105 -40.625 40.25 C-39.65143555 39.33335571 -39.65143555 39.33335571 -38.65820312 38.39819336 C-25.50156306 25.88167667 -12.80018047 12.87855384 0 0 Z " fill="#FD5C5C" transform="translate(296,25)"/>
<path d="M0 0 C30.36 0 60.72 0 92 0 C92 43.89 92 87.78 92 133 C48.29984466 133 48.29984466 133 39.63607788 126.12382507 C39.05540558 125.53728653 38.47473328 124.95074799 37.87646484 124.34643555 C37.19901215 123.67190842 36.52155945 122.99738129 35.82357788 122.30241394 C35.12640656 121.58773453 34.42923523 120.87305511 33.7109375 120.13671875 C32.96341217 119.3859053 32.21588684 118.63509186 31.44570923 117.86152649 C29.07924743 115.47943913 26.72731628 113.08354771 24.375 110.6875 C22.78993615 109.09092904 21.20400563 107.49521803 19.6171875 105.90039062 C18.08516162 104.35493541 16.55388633 102.80873571 15.0234375 101.26171875 C14.32221771 100.55311203 13.62099792 99.84450531 12.89852905 99.11442566 C11.55622768 97.74645373 10.22949742 96.36300448 8.9198761 94.9637146 C7.056417 92.97556366 7.056417 92.97556366 4.96916199 91.38809204 C1.47671072 88.32024559 -0.10093133 85.62306228 -0.59436035 81.0176239 C-0.90289157 75.88573459 -0.78878779 70.76187413 -0.68359375 65.625 C-0.67328871 63.94532902 -0.6661555 62.26563551 -0.66223145 60.5859375 C-0.62568181 54.39027993 -0.52795201 48.19510508 -0.4375 42 C-0.293125 28.14 -0.14875 14.28 0 0 Z " fill="#FEFEFE" transform="translate(251,249)"/>
<path d="M0 0 C1.16595703 0.63615234 1.16595703 0.63615234 2.35546875 1.28515625 C10.80391354 6.36554432 17.31326842 14.44394929 20 24 C22.12723618 36.23527568 20.62017408 47.1944487 13.79296875 57.6796875 C7.59286415 65.70335228 -0.10997305 70.8027217 -10 73 C-19.26496798 73.8351488 -29.02712065 74.35392938 -37 69 C-37.69222656 68.55269531 -38.38445312 68.10539062 -39.09765625 67.64453125 C-46.5267239 62.46501305 -51.4268139 56.28329505 -55 48 C-55.35964844 47.22011719 -55.71929687 46.44023437 -56.08984375 45.63671875 C-59.05818667 37.03744206 -57.19131758 26.30882327 -54 18 C-48.95518007 8.34477519 -40.31715486 0.28837708 -29.96484375 -3.375 C-19.82339758 -5.51285427 -9.1200263 -5.1998729 0 0 Z " fill="#030302" transform="translate(315,136)"/>
<path d="M0 0 C2.9375 2.4375 2.9375 2.4375 5 5 C5.33 5.33 5.66 5.66 6 6 C6.1206308 8.14560409 6.17027884 10.29521807 6.19287109 12.4440918 C6.20104858 13.11735001 6.20922607 13.79060822 6.21765137 14.48426819 C6.24255432 16.72257591 6.25903736 18.96081981 6.2734375 21.19921875 C6.27876118 21.96309214 6.28408485 22.72696552 6.28956985 23.51398659 C6.31632801 27.56033959 6.33569068 31.60666151 6.35009766 35.65307617 C6.36671487 39.82855659 6.41145917 44.00324296 6.4624691 48.17842388 C6.49617727 51.39126969 6.50767916 54.60392834 6.51332474 57.81693459 C6.52003192 59.35550792 6.5352404 60.89406917 6.55921555 62.43247032 C6.59093796 64.59194172 6.59089448 66.74929106 6.58349609 68.90893555 C6.59158295 70.13613815 6.5996698 71.36334076 6.60800171 72.62773132 C5.78851479 77.17299824 4.28715046 78.78523619 1 82 C-2.93283177 83.19389536 -4.96253872 83.44799464 -8.75 81.8125 C-12.13642581 79.08454588 -13.83509086 77.32072055 -14.38768005 72.89515686 C-14.39308304 71.67557785 -14.39848602 70.45599884 -14.40405273 69.19946289 C-14.41091599 68.52416031 -14.41777924 67.84885773 -14.42485046 67.15309143 C-14.44311618 64.92606437 -14.43928151 62.69974198 -14.43359375 60.47265625 C-14.43815585 58.92093171 -14.44346151 57.3692092 -14.44947815 55.81748962 C-14.45840888 52.56680082 -14.45598689 49.31635768 -14.44604492 46.06567383 C-14.43455781 41.90479845 -14.45476207 37.74477206 -14.48396206 33.58400822 C-14.50233019 30.37974176 -14.5020304 27.17567851 -14.49632454 23.9713726 C-14.49617138 22.43760424 -14.50221109 20.90382205 -14.51461601 19.37010384 C-14.5295361 17.22284209 -14.51884402 15.07714524 -14.50170898 12.92993164 C-14.50154282 11.70955704 -14.50137665 10.48918243 -14.50120544 9.23182678 C-13.90565551 5.39165654 -12.6975947 3.74363954 -10 1 C-6.78540014 -0.60729993 -3.47611897 -0.61930855 0 0 Z " fill="#010100" transform="translate(410,291)"/>
<path d="M0 0 C5.00405013 3.45517747 8.51795222 7.04584293 10.625 12.8125 C11.61083534 19.28054161 10.37732339 24.45724235 6.625 29.8125 C0.64349535 35.49492942 -4.14566387 36.26484047 -12.23828125 36.12890625 C-17.60556745 35.5874988 -20.09565851 33.19845328 -23.625 29.375 C-27.3059391 23.98505346 -28.20430536 19.25307931 -27.375 12.8125 C-25.73435326 6.75642142 -22.25283924 3.0932005 -16.9453125 -0.12109375 C-11.26136513 -2.47932723 -5.70959552 -2.00893176 0 0 Z " fill="#FBFBFB" transform="translate(305.375,153.1875)"/>
<path d="M0 0 C2.33596018 1.77210772 3.341093 3.5116395 5 6 C5.58466608 10.42675745 5.27147208 12.51835598 3.0625 16.4375 C-0.55696216 19.46602956 -2.27521279 19.71452713 -6.84375 19.40234375 C-9.7411624 18.86170339 -11.7192075 17.85314391 -14 16 C-15.73765543 12.52468913 -15.59585352 8.7911999 -15 5 C-10.52391088 -0.80681831 -7.01242828 -1.5026632 0 0 Z " fill="#020101" transform="translate(219,83)"/>
<path d="M0 0 C3.17496188 2.09258851 4.88460857 3.82691286 7 7 C6.92294498 11.77741104 6.6530431 14.05011913 3.9375 18 C0.63873137 20.24597013 -1.15583782 20.73307 -5.06640625 20.50390625 C-8.31453318 19.65742469 -9.95633201 17.53910265 -12 15 C-12.33 14.67 -12.66 14.34 -13 14 C-13.71194379 6.88056206 -13.71194379 6.88056206 -10.625 3.0625 C-6.83919272 0.08793713 -4.82819303 -0.47335226 0 0 Z " fill="#090909" transform="translate(277,305)"/>
<path d="M0 0 C2.86830829 2.01391859 4.61592935 3.45434983 5.48046875 6.93359375 C5.75669245 10.88284615 5.25523948 12.63647711 2.9375 15.9375 C-0.57823396 18.40599406 -2.71383323 19 -7 19 C-10.653118 17.42251723 -13.09338824 15.51217955 -15 12 C-15.52866286 8.96018857 -15.60695589 7.00229114 -13.98046875 4.31640625 C-9.70659149 -1.06790437 -6.53787705 -1.57810825 0 0 Z " fill="#070709" transform="translate(65,439)"/>
<path d="M0 0 C2.9375 2.4375 2.9375 2.4375 5 5 C5.33 5.33 5.66 5.66 6 6 C6.40038554 10.16400962 6.44184328 12.32250696 4.125 15.875 C1.21289342 18.78710658 0.3997223 18.96068305 -3.8125 19.375 C-7.45869525 19.35511166 -7.92035679 19.06608692 -10.9375 16.5625 C-11.618125 15.716875 -12.29875 14.87125 -13 14 C-13.33 13.67 -13.66 13.34 -14 13 C-14.40038554 8.83599038 -14.44184328 6.67749304 -12.125 3.125 C-8.55992016 -0.44007984 -4.89625656 -0.87232157 0 0 Z " fill="#070604" transform="translate(410,253)"/>
</svg>
